<?xml version="1.0" encoding="utf-8"?>
<!-- Generator: Adobe Illustrator 23.0.1, SVG Export Plug-In . SVG Version: 6.00 Build 0)  -->
<svg version="1.1" id="Layer_1" xmlns="http://www.w3.org/2000/svg" xmlns:xlink="http://www.w3.org/1999/xlink" x="0px" y="0px"
	 viewBox="0 0 269.3 236.9" style="enable-background:new 0 0 269.3 236.9;" xml:space="preserve">
<style type="text/css">
	.st0{fill:#FFFFFF;}
</style>
<g>
	<path class="st0" d="M268.7,236.9c0-1.3,0.1-2.4,0.1-3.7c0-76.4,0-152.6,0-229c0-1.4-0.1-2.9-0.1-4.3c0.2,0.8,0.6,1.6,0.6,2.4
		c0,38.7,0,77.3,0,116s0,77.3,0,116C269.3,235.3,268.9,236.1,268.7,236.9z"/>
	<path d="M5,212.4c0-2.8,0-5.2,0-7.9c5.2-0.5,10.4-0.8,15.5-1.3c6.6-0.7,8.6-2.5,9.1-8.8c0.6-6.8,1.1-13.6,1.1-20.5
		c0.1-37.1,0.1-74.3,0-111.4c0-6.6-0.5-13-1.1-19.6c-0.6-6.9-2.6-8.8-9.9-9.3c-3.5-0.3-6.9-0.3-10.4-0.6c-1.3-0.1-2.7-0.2-4.2-0.5
		c0-2.6,0-5.1,0-7.8c1.2,0,2.4,0,3.5,0c61.7,0,123.4,0,185.1,0c11.7,0,23.1,1.5,33.9,6.1c25.3,10.6,29.2,41.8,13.3,58.9
		c-9.4,10-21.1,16.5-33.7,21.7c-2.7,1.2-5.6,2.2-9.2,3.6c3.3,0.7,6,1.3,8.6,1.8c12.3,3,23.3,8.1,32.4,16.8
		c17.7,17.2,15.2,45.8,4.2,59.1c-7.1,8.5-16.8,13-27.5,15.8c-10.4,2.6-21,3.7-31.7,3.7c-58.7,0.1-117.6,0-176.3,0
		C7,212.4,6.2,212.4,5,212.4z M155.7,119.4c-0.1,0.8-0.2,1.2-0.2,1.5c0.1,23.7,0.4,47.4,0.6,71.3c0.1,5.9,3.1,9.7,9.2,10.2
		c7.4,0.8,15,1.5,22.3,0.6c16.1-2.1,27.8-10.4,32.6-25.9c1.9-5.9,1.9-12.1,1.1-18.2c-1.4-11.3-6.3-21-16.1-27.6
		C190.3,121.2,173.2,119.9,155.7,119.4z M59.6,119.4c0,7.7,0,15,0,22.2c0.1,16.5,0.2,33.1,0.5,49.5c0.1,6.9,2.9,10.4,9.8,11.4
		c4.9,0.8,9.9,1.2,14.8,1.2c22.4-0.1,43-14.3,41.2-41.2c-1-13.5-6.1-24.8-18.1-32.4C93.1,121.2,76.7,119.8,59.6,119.4z M155.6,110.7
		c12.7,0.3,25.1,0.1,36.8-4.4c5.2-2,10.5-4.6,14.8-8.1c12.5-9.9,14.8-23.4,12.5-38c-2-13.1-9.6-20.8-23.2-23.6
		c-13.1-2.6-26.3-3.3-39.5-3.2c-0.4,0-0.7,0.2-1.2,0.3C155.6,59.4,155.6,84.9,155.6,110.7z M59.7,110.7c15.5,0.5,30.3-0.3,44-7.4
		c10.6-5.5,17.5-13.8,19.9-25.5c1.3-6.4,1.1-13-0.2-19.5c-2.4-11.2-8.8-18.8-20.6-21c-8.8-1.6-17.6-2.8-26.6-3.6
		c-5.4-0.6-10.8-0.1-16.4-0.1C59.7,59.3,59.7,84.8,59.7,110.7z M103.3,114.9c7.6,2.2,15.4,4.5,23.1,6.7c0-5.6,0-11.2,0-16.8
		C118.4,108.3,110.8,111.6,103.3,114.9z"/>
	<path class="st0" d="M126.4,121.6c-7.7-2.2-15.5-4.5-23.1-6.7"/>
</g>
</svg>
