<?xml version="1.0" encoding="utf-8"?>
<!-- Generator: Adobe Illustrator 23.0.1, SVG Export Plug-In . SVG Version: 6.00 Build 0)  -->
<svg version="1.1" id="Layer_1" xmlns="http://www.w3.org/2000/svg" xmlns:xlink="http://www.w3.org/1999/xlink" x="0px" y="0px"
	 viewBox="0 0 269.28 236.88" style="enable-background:new 0 0 269.28 236.88;" xml:space="preserve">
<style type="text/css">
	.st0{fill:#FFFFFF;}
</style>
<g>
	<path d="M253.12,220.71c-78.64,0-157.29,0-235.93,0c0-68.55,0-137.09,0-205.64c78.64,0,157.29,0,235.93,0
		c0.03,1.24,0.09,2.47,0.09,3.71c0,66.25,0,132.5,0,198.75C253.2,218.59,253.15,219.65,253.12,220.71z M249.27,19.43
		c-76.02,0-151.85,0-227.62,0c0,65.84,0,131.49,0,197.13c75.97,0,151.73,0,227.62,0C249.27,150.81,249.27,85.22,249.27,19.43z"/>
	<path class="st0" d="M253.12,220.71c0.03-1.06,0.09-2.12,0.09-3.18c0-66.25,0-132.5,0-198.75c0-1.24-0.06-2.47-0.09-3.71
		c0.18,0.71,0.51,1.42,0.51,2.13c0.03,33.56,0.02,67.13,0.02,100.69s0,67.13-0.02,100.69C253.63,219.29,253.3,220,253.12,220.71z"/>
	<path d="M31.74,199.45c0-2.45,0-4.54,0-6.86c4.37-0.36,8.67-0.66,12.96-1.09c5.49-0.56,7.16-2.16,7.58-7.63
		c0.46-5.91,0.9-11.83,0.92-17.75c0.09-32.23,0.08-64.47,0-96.7c-0.01-5.65-0.44-11.31-0.9-16.95c-0.49-6.04-2.19-7.62-8.3-8.15
		c-2.91-0.25-5.83-0.35-8.74-0.55c-1.13-0.08-2.25-0.24-3.5-0.37c0-2.28,0-4.36,0-6.79c1.04,0,1.99,0,2.94,0
		c51.8,0,103.61-0.03,155.41,0.03c9.79,0.01,19.36,1.34,28.48,5.31c21.18,9.2,24.54,36.34,11.18,51.08
		c-7.87,8.68-17.67,14.29-28.25,18.82c-2.34,1-4.71,1.92-7.71,3.13c2.82,0.64,5.03,1.1,7.21,1.64c10.31,2.56,19.58,7,27.23,14.61
		c14.92,14.86,12.79,39.85,3.46,51.33c-6.03,7.42-14.11,11.31-23.08,13.72c-8.69,2.33-17.59,3.17-26.55,3.18
		c-49.33,0.06-98.65,0.03-147.98,0.03C33.43,199.45,32.72,199.45,31.74,199.45z M158.24,118.71c-0.11,0.65-0.22,0.98-0.22,1.31
		c0.15,20.62,0.25,41.24,0.49,61.87c0.06,5.09,2.6,8.35,7.72,8.91c6.2,0.68,12.6,1.31,18.72,0.49c13.51-1.8,23.25-8.98,27.43-22.48
		c1.6-5.15,1.55-10.47,0.89-15.78c-1.23-9.84-5.25-18.17-13.49-24.01C187.31,120.18,172.91,119.09,158.24,118.71z M77.5,118.72
		c0,6.72-0.03,12.99,0.01,19.26c0.1,14.33,0.17,28.66,0.37,42.98c0.09,6.04,2.43,8.98,8.19,9.94c4.07,0.68,8.26,0.98,12.39,0.97
		c18.84-0.05,36.12-12.37,34.56-35.76c-0.78-11.67-5.08-21.51-15.15-28.06C105.72,120.16,91.94,119.01,77.5,118.72z M158.1,111.08
		c10.68,0.34,21.05,0.06,30.85-3.79c4.38-1.72,8.77-4.02,12.39-6.99c10.48-8.6,12.41-20.27,10.54-32.96
		c-1.67-11.39-8.15-18.12-19.53-20.47c-11-2.28-22.08-2.86-33.24-2.8c-0.32,0-0.63,0.16-1,0.26
		C158.1,66.57,158.1,88.68,158.1,111.08z M77.64,111.08c12.96,0.36,25.43-0.33,36.92-6.44c8.93-4.75,14.73-12,16.7-22.06
		c1.1-5.63,0.9-11.26-0.24-16.88c-1.97-9.68-7.37-16.27-17.28-18.19c-7.36-1.43-14.82-2.4-22.28-3.14
		c-4.52-0.45-9.12-0.08-13.82-0.08C77.64,66.53,77.64,88.64,77.64,111.08z M114.18,114.82c6.42,1.92,12.91,3.86,19.4,5.8
		c0-4.87,0-9.73,0-14.62C126.93,109.02,120.5,111.94,114.18,114.82z"/>
	<path class="st0" d="M133.58,120.62c-6.49-1.94-12.98-3.88-19.4-5.8"/>
</g>
</svg>
